<mxfile host="Electron" modified="2024-12-13T06:57:22.495Z" agent="Mozilla/5.0 (Windows NT 10.0; Win64; x64) AppleWebKit/537.36 (KHTML, like Gecko) draw.io/24.2.5 Chrome/120.0.6099.109 Electron/28.1.0 Safari/537.36" etag="gqo_vCEBb1Gzc7JuwB0g" version="24.2.5" type="device">
  <diagram name="第 1 页" id="D4-EVIukx-qc9enkXYYo">
    <mxGraphModel dx="2074" dy="1196" grid="1" gridSize="10" guides="1" tooltips="1" connect="1" arrows="1" fold="1" page="1" pageScale="1" pageWidth="827" pageHeight="1169" math="0" shadow="0">
      <root>
        <mxCell id="0" />
        <mxCell id="1" parent="0" />
        <mxCell id="c8BcG8YW7I5mC54LNEgf-1" value="state: AtomicUsize" style="rounded=0;whiteSpace=wrap;html=1;fillColor=#dae8fc;strokeColor=#6c8ebf;" parent="1" vertex="1">
          <mxGeometry x="290" y="390" width="220" height="40" as="geometry" />
        </mxCell>
        <mxCell id="c8BcG8YW7I5mC54LNEgf-2" value="awaiter: UnsafeCell&amp;lt;Option&amp;lt;Waker&amp;gt;&amp;gt;" style="rounded=0;whiteSpace=wrap;html=1;fillColor=#dae8fc;strokeColor=#6c8ebf;" parent="1" vertex="1">
          <mxGeometry x="290" y="430" width="220" height="40" as="geometry" />
        </mxCell>
        <mxCell id="c8BcG8YW7I5mC54LNEgf-4" value="vtable: &amp;amp;&#39;static TaskVTable" style="rounded=0;whiteSpace=wrap;html=1;fillColor=#dae8fc;strokeColor=#6c8ebf;" parent="1" vertex="1">
          <mxGeometry x="290" y="470" width="220" height="40" as="geometry" />
        </mxCell>
        <mxCell id="c8BcG8YW7I5mC54LNEgf-5" value="metadata: M" style="rounded=0;whiteSpace=wrap;html=1;fillColor=#dae8fc;strokeColor=#6c8ebf;" parent="1" vertex="1">
          <mxGeometry x="290" y="510" width="220" height="40" as="geometry" />
        </mxCell>
        <mxCell id="c8BcG8YW7I5mC54LNEgf-6" value="" style="shape=curlyBracket;whiteSpace=wrap;html=1;rounded=1;labelPosition=left;verticalLabelPosition=middle;align=right;verticalAlign=middle;" parent="1" vertex="1">
          <mxGeometry x="250" y="410" width="20" height="120" as="geometry" />
        </mxCell>
        <mxCell id="c8BcG8YW7I5mC54LNEgf-7" value="Header" style="text;html=1;align=center;verticalAlign=middle;resizable=0;points=[];autosize=1;strokeColor=none;fillColor=none;fontStyle=1" parent="1" vertex="1">
          <mxGeometry x="190" y="455" width="60" height="30" as="geometry" />
        </mxCell>
        <mxCell id="c8BcG8YW7I5mC54LNEgf-8" value="custom_schedule" style="rounded=0;whiteSpace=wrap;html=1;fillColor=#e1d5e7;strokeColor=#9673a6;" parent="1" vertex="1">
          <mxGeometry x="290" y="550" width="220" height="40" as="geometry" />
        </mxCell>
        <mxCell id="c8BcG8YW7I5mC54LNEgf-9" value="future / output" style="rounded=0;whiteSpace=wrap;html=1;fillColor=#fff2cc;strokeColor=#d6b656;" parent="1" vertex="1">
          <mxGeometry x="290" y="590" width="220" height="70" as="geometry" />
        </mxCell>
        <mxCell id="c8BcG8YW7I5mC54LNEgf-10" value="schedule" style="rounded=0;whiteSpace=wrap;html=1;" parent="1" vertex="1">
          <mxGeometry x="610" y="490" width="110" height="30" as="geometry" />
        </mxCell>
        <mxCell id="c8BcG8YW7I5mC54LNEgf-11" value="" style="endArrow=classic;html=1;rounded=0;exitX=1;exitY=0.5;exitDx=0;exitDy=0;" parent="1" source="c8BcG8YW7I5mC54LNEgf-4" edge="1">
          <mxGeometry width="50" height="50" relative="1" as="geometry">
            <mxPoint x="560" y="510" as="sourcePoint" />
            <mxPoint x="610" y="490" as="targetPoint" />
          </mxGeometry>
        </mxCell>
        <mxCell id="c8BcG8YW7I5mC54LNEgf-13" value="drop_future" style="rounded=0;whiteSpace=wrap;html=1;" parent="1" vertex="1">
          <mxGeometry x="610" y="520" width="110" height="30" as="geometry" />
        </mxCell>
        <mxCell id="c8BcG8YW7I5mC54LNEgf-14" value="get_output" style="rounded=0;whiteSpace=wrap;html=1;" parent="1" vertex="1">
          <mxGeometry x="610" y="550" width="110" height="30" as="geometry" />
        </mxCell>
        <mxCell id="c8BcG8YW7I5mC54LNEgf-15" value="drop_ref" style="rounded=0;whiteSpace=wrap;html=1;" parent="1" vertex="1">
          <mxGeometry x="610" y="580" width="110" height="30" as="geometry" />
        </mxCell>
        <mxCell id="c8BcG8YW7I5mC54LNEgf-16" value="destroy" style="rounded=0;whiteSpace=wrap;html=1;" parent="1" vertex="1">
          <mxGeometry x="610" y="610" width="110" height="30" as="geometry" />
        </mxCell>
        <mxCell id="c8BcG8YW7I5mC54LNEgf-17" value="run" style="rounded=0;whiteSpace=wrap;html=1;" parent="1" vertex="1">
          <mxGeometry x="610" y="640" width="110" height="30" as="geometry" />
        </mxCell>
        <mxCell id="c8BcG8YW7I5mC54LNEgf-18" value="clone_waker" style="rounded=0;whiteSpace=wrap;html=1;" parent="1" vertex="1">
          <mxGeometry x="610" y="670" width="110" height="30" as="geometry" />
        </mxCell>
        <mxCell id="c8BcG8YW7I5mC54LNEgf-20" value="RawTask" style="text;html=1;align=center;verticalAlign=middle;resizable=0;points=[];autosize=1;strokeColor=none;fillColor=none;fontStyle=1;fontSize=16;" parent="1" vertex="1">
          <mxGeometry x="440" y="340" width="90" height="30" as="geometry" />
        </mxCell>
      </root>
    </mxGraphModel>
  </diagram>
</mxfile>
